Coordinates
version=1
nRows=27
nColumns=12
inDegrees=yes

Units are S.I. units (second, meters, Newtons, ...)
Angles are in degrees

endheader
time	SC_y	SC_z	SC_x	AC_y	AC_z	AC_x	GH_y	GH_z	GH_yy	EL_x	PS_y
       0.0              -18.72          8.791          25.25          45.43          7.515           13.6          115.3           72.5         -133.1          66.34          29.58
   0.04852              -18.72          8.793          25.25          45.43          7.515           13.6          115.3          72.49         -133.1          66.35           29.6
   0.09705              -18.72          8.795          25.25          45.43          7.514           13.6          115.3          72.47         -133.0          66.36          29.62
    0.1456              -18.72          8.796          25.25          45.43          7.514           13.6          115.3          72.46         -133.0          66.37          29.64
    0.1941              -18.73          8.798          25.25          45.43          7.513           13.6          115.2          72.44         -133.0          66.38          29.66
    0.2426              -18.73            8.8          25.24          45.42          7.513           13.6          115.2          72.42         -132.9          66.39          29.68
    0.2911              -18.73          8.802          25.24          45.42          7.512           13.6          115.2          72.41         -132.9           66.4           29.7
    0.3397              -18.73          8.805          25.24          45.42          7.511           13.6          115.2          72.39         -132.9          66.41          29.72
    0.3882              -18.73          8.807          25.24          45.42          7.511           13.6          115.2          72.37         -132.8          66.43          29.75
    0.4367              -18.74           8.81          25.24          45.42           7.51           13.6          115.2          72.34         -132.8          66.44          29.78
    0.4852              -18.74          8.812          25.23          45.42          7.509          13.61          115.1          72.32         -132.7          66.46          29.81
    0.5338              -18.74          8.815          25.23          45.42          7.508          13.61          115.1           72.3         -132.7          66.48          29.84
    0.5823              -18.75          8.818          25.23          45.41          7.507          13.61          115.1          72.27         -132.6          66.49          29.88
    0.6308              -18.75          8.822          25.23          45.41          7.506          13.61          115.0          72.24         -132.6          66.51          29.91
    0.6793              -18.75          8.826          25.22          45.41          7.505          13.61          115.0          72.21         -132.5          66.54          29.95
    0.7279              -18.76           8.83          25.22          45.41          7.504          13.61          115.0          72.17         -132.4          66.56           30.0
    0.7764              -18.76          8.834          25.21          45.41          7.502          13.61          114.9          72.13         -132.3          66.58          30.05
    0.8249              -18.77          8.839          25.21           45.4          7.501          13.61          114.9          72.09         -132.3          66.61           30.1
    0.8734              -18.77          8.844          25.21           45.4          7.499          13.61          114.9          72.05         -132.2          66.64          30.16
     0.922              -18.78           8.85           25.2           45.4          7.497          13.61          114.8           72.0         -132.1          66.67          30.22
    0.9705              -18.78          8.856          25.19          45.39          7.495          13.61          114.8          71.95         -131.9          66.71          30.29
     1.019              -18.79          8.863          25.19          45.39          7.493          13.61          114.7          71.89         -131.8          66.75          30.36
     1.068               -18.8          8.871          25.18          45.39          7.491          13.61          114.6          71.82         -131.7          66.79          30.45
     1.116              -18.81           8.88          25.17          45.38          7.488          13.61          114.6          71.75         -131.5          66.84          30.54
     1.165              -18.81          8.889          25.16          45.38          7.485          13.62          114.5          71.67         -131.4           66.9          30.64
     1.213              -18.82            8.9          25.16          45.37          7.482          13.62          114.4          71.58         -131.2          66.96          30.76
     1.262              -18.84          8.912          25.14          45.37          7.478          13.62          114.3          71.48         -131.0          67.02          30.89
